<mxfile host="app.diagrams.net" modified="2020-11-26T09:14:28.886Z" agent="5.0 (Windows NT 10.0; Win64; x64) AppleWebKit/537.36 (KHTML, like Gecko) Chrome/86.0.4240.198 Safari/537.36" etag="K3rlLt-GyNE5K2Cav-AQ" version="13.9.9" type="github">
  <diagram name="Page-1" id="e7e014a7-5840-1c2e-5031-d8a46d1fe8dd">
    <mxGraphModel dx="2207" dy="580" grid="1" gridSize="10" guides="1" tooltips="1" connect="1" arrows="1" fold="1" page="1" pageScale="1" pageWidth="1169" pageHeight="826" background="#ffffff" math="0" shadow="0">
      <root>
        <mxCell id="0" />
        <mxCell id="1" parent="0" />
        <mxCell id="kwXfaaGmL9mgUhSH-RIM-41" value="" style="ellipse;html=1;shape=startState;fillColor=#000000;strokeColor=#ff0000;" vertex="1" parent="1">
          <mxGeometry x="-1062.5" y="20" width="30" height="30" as="geometry" />
        </mxCell>
        <mxCell id="kwXfaaGmL9mgUhSH-RIM-42" value="" style="edgeStyle=orthogonalEdgeStyle;html=1;verticalAlign=bottom;endArrow=open;endSize=8;strokeColor=#ff0000;entryX=0.5;entryY=0;entryDx=0;entryDy=0;" edge="1" source="kwXfaaGmL9mgUhSH-RIM-41" parent="1" target="kwXfaaGmL9mgUhSH-RIM-43">
          <mxGeometry relative="1" as="geometry">
            <mxPoint x="-1047.5" y="110" as="targetPoint" />
          </mxGeometry>
        </mxCell>
        <mxCell id="kwXfaaGmL9mgUhSH-RIM-57" style="edgeStyle=orthogonalEdgeStyle;rounded=0;orthogonalLoop=1;jettySize=auto;html=1;" edge="1" parent="1" source="kwXfaaGmL9mgUhSH-RIM-43" target="kwXfaaGmL9mgUhSH-RIM-45">
          <mxGeometry relative="1" as="geometry" />
        </mxCell>
        <mxCell id="kwXfaaGmL9mgUhSH-RIM-43" value="&lt;span lang=&quot;EN-GB&quot; style=&quot;font-size: 11.0pt ; line-height: 107% ; font-family: &amp;#34;calibri&amp;#34; , sans-serif&quot;&gt;Product&lt;br/&gt;Owner (PO) stellt Agenda vor&lt;/span&gt;" style="rounded=1;whiteSpace=wrap;html=1;arcSize=40;fontColor=#000000;fillColor=#ffffc0;strokeColor=#ff0000;" vertex="1" parent="1">
          <mxGeometry x="-1120" y="100" width="145" height="60" as="geometry" />
        </mxCell>
        <mxCell id="kwXfaaGmL9mgUhSH-RIM-47" style="edgeStyle=orthogonalEdgeStyle;rounded=0;orthogonalLoop=1;jettySize=auto;html=1;" edge="1" parent="1" source="kwXfaaGmL9mgUhSH-RIM-45" target="kwXfaaGmL9mgUhSH-RIM-46">
          <mxGeometry relative="1" as="geometry" />
        </mxCell>
        <mxCell id="kwXfaaGmL9mgUhSH-RIM-45" value="&lt;span lang=&quot;EN-GB&quot; style=&quot;font-size: 11.0pt ; line-height: 107% ; font-family: &amp;#34;calibri&amp;#34; , sans-serif&quot;&gt;PO&lt;br/&gt;stellt Sprintziel vor&lt;/span&gt;" style="rounded=1;whiteSpace=wrap;html=1;arcSize=40;fontColor=#000000;fillColor=#ffffc0;strokeColor=#ff0000;" vertex="1" parent="1">
          <mxGeometry x="-1120" y="210" width="145" height="60" as="geometry" />
        </mxCell>
        <mxCell id="kwXfaaGmL9mgUhSH-RIM-49" style="edgeStyle=orthogonalEdgeStyle;rounded=0;orthogonalLoop=1;jettySize=auto;html=1;" edge="1" parent="1" source="kwXfaaGmL9mgUhSH-RIM-46" target="kwXfaaGmL9mgUhSH-RIM-48">
          <mxGeometry relative="1" as="geometry" />
        </mxCell>
        <mxCell id="kwXfaaGmL9mgUhSH-RIM-46" value="&lt;p class=&quot;MsoNormal&quot;&gt;Scrum Master (SM) stellt Ergebnisse des vorherigen Sprints vor&lt;/p&gt;" style="rounded=1;whiteSpace=wrap;html=1;arcSize=40;fontColor=#000000;fillColor=#ffffc0;strokeColor=#ff0000;" vertex="1" parent="1">
          <mxGeometry x="-1120" y="320" width="145" height="60" as="geometry" />
        </mxCell>
        <mxCell id="kwXfaaGmL9mgUhSH-RIM-51" style="edgeStyle=orthogonalEdgeStyle;rounded=0;orthogonalLoop=1;jettySize=auto;html=1;" edge="1" parent="1" source="kwXfaaGmL9mgUhSH-RIM-48" target="kwXfaaGmL9mgUhSH-RIM-50">
          <mxGeometry relative="1" as="geometry" />
        </mxCell>
        <mxCell id="kwXfaaGmL9mgUhSH-RIM-48" value="&lt;p class=&quot;MsoNormal&quot;&gt;SM ermittelt Kapazität für neuen Sprint&lt;/p&gt;" style="rounded=1;whiteSpace=wrap;html=1;arcSize=40;fontColor=#000000;fillColor=#ffffc0;strokeColor=#ff0000;" vertex="1" parent="1">
          <mxGeometry x="-1120" y="430" width="145" height="60" as="geometry" />
        </mxCell>
        <mxCell id="kwXfaaGmL9mgUhSH-RIM-55" style="edgeStyle=orthogonalEdgeStyle;rounded=0;orthogonalLoop=1;jettySize=auto;html=1;" edge="1" parent="1" source="kwXfaaGmL9mgUhSH-RIM-50" target="kwXfaaGmL9mgUhSH-RIM-52">
          <mxGeometry relative="1" as="geometry" />
        </mxCell>
        <mxCell id="kwXfaaGmL9mgUhSH-RIM-50" value="&lt;p class=&quot;MsoNormal&quot;&gt;&lt;span style=&quot;font-size: 11.0pt ; line-height: 107% ; font-family: &amp;#34;calibri&amp;#34; , sans-serif&quot;&gt;PO&lt;br/&gt;gibt Überblick über Anforderungen&lt;/span&gt;&lt;br&gt;&lt;/p&gt;" style="rounded=1;whiteSpace=wrap;html=1;arcSize=40;fontColor=#000000;fillColor=#ffffc0;strokeColor=#ff0000;" vertex="1" parent="1">
          <mxGeometry x="-1120" y="540" width="145" height="60" as="geometry" />
        </mxCell>
        <mxCell id="kwXfaaGmL9mgUhSH-RIM-121" style="edgeStyle=orthogonalEdgeStyle;rounded=0;orthogonalLoop=1;jettySize=auto;html=1;entryX=0;entryY=0.5;entryDx=0;entryDy=0;exitX=0;exitY=0.5;exitDx=0;exitDy=0;" edge="1" parent="1" source="kwXfaaGmL9mgUhSH-RIM-52" target="kwXfaaGmL9mgUhSH-RIM-119">
          <mxGeometry relative="1" as="geometry" />
        </mxCell>
        <mxCell id="kwXfaaGmL9mgUhSH-RIM-52" value="" style="rhombus;whiteSpace=wrap;html=1;fillColor=#ffffc0;strokeColor=#ff0000;" vertex="1" parent="1">
          <mxGeometry x="-1087.5" y="650" width="80" height="40" as="geometry" />
        </mxCell>
        <mxCell id="kwXfaaGmL9mgUhSH-RIM-60" style="edgeStyle=orthogonalEdgeStyle;rounded=0;orthogonalLoop=1;jettySize=auto;html=1;" edge="1" parent="1" source="kwXfaaGmL9mgUhSH-RIM-58" target="kwXfaaGmL9mgUhSH-RIM-59">
          <mxGeometry relative="1" as="geometry" />
        </mxCell>
        <mxCell id="kwXfaaGmL9mgUhSH-RIM-58" value="&lt;p class=&quot;MsoNormal&quot;&gt;&lt;span style=&quot;font-size: 11.0pt ; line-height: 107% ; font-family: &amp;#34;calibri&amp;#34; , sans-serif&quot;&gt;Anforderung&lt;br&gt;wird durchgegangen&lt;/span&gt;&lt;br&gt;&lt;/p&gt;" style="rounded=1;whiteSpace=wrap;html=1;arcSize=40;fontColor=#000000;fillColor=#ffffc0;strokeColor=#ff0000;" vertex="1" parent="1">
          <mxGeometry x="-950" y="730" width="145" height="60" as="geometry" />
        </mxCell>
        <mxCell id="kwXfaaGmL9mgUhSH-RIM-65" style="edgeStyle=orthogonalEdgeStyle;rounded=0;orthogonalLoop=1;jettySize=auto;html=1;" edge="1" parent="1" source="kwXfaaGmL9mgUhSH-RIM-59" target="kwXfaaGmL9mgUhSH-RIM-62">
          <mxGeometry relative="1" as="geometry" />
        </mxCell>
        <mxCell id="kwXfaaGmL9mgUhSH-RIM-59" value="&lt;p class=&quot;MsoNormal&quot;&gt;&lt;span style=&quot;font-size: 11.0pt ; line-height: 107% ; font-family: &amp;#34;calibri&amp;#34; , sans-serif&quot;&gt;Anforderung&lt;br/&gt;wird analysiert&lt;/span&gt;&lt;br&gt;&lt;/p&gt;" style="rounded=1;whiteSpace=wrap;html=1;arcSize=40;fontColor=#000000;fillColor=#ffffc0;strokeColor=#ff0000;" vertex="1" parent="1">
          <mxGeometry x="-750" y="730" width="145" height="60" as="geometry" />
        </mxCell>
        <mxCell id="kwXfaaGmL9mgUhSH-RIM-66" style="edgeStyle=orthogonalEdgeStyle;rounded=0;orthogonalLoop=1;jettySize=auto;html=1;" edge="1" parent="1" source="kwXfaaGmL9mgUhSH-RIM-62" target="kwXfaaGmL9mgUhSH-RIM-64">
          <mxGeometry relative="1" as="geometry" />
        </mxCell>
        <mxCell id="kwXfaaGmL9mgUhSH-RIM-62" value="&lt;p class=&quot;MsoNormal&quot;&gt;&lt;span style=&quot;font-size: 11.0pt ; line-height: 107% ; font-family: &amp;#34;calibri&amp;#34; , sans-serif&quot;&gt;Rahmenbedingungen&lt;br&gt;werden besprochen&lt;/span&gt;&lt;br&gt;&lt;/p&gt;" style="rounded=1;whiteSpace=wrap;html=1;arcSize=40;fontColor=#000000;fillColor=#ffffc0;strokeColor=#ff0000;" vertex="1" parent="1">
          <mxGeometry x="-550" y="730" width="145" height="60" as="geometry" />
        </mxCell>
        <mxCell id="kwXfaaGmL9mgUhSH-RIM-68" style="edgeStyle=orthogonalEdgeStyle;rounded=0;orthogonalLoop=1;jettySize=auto;html=1;" edge="1" parent="1" source="kwXfaaGmL9mgUhSH-RIM-64" target="kwXfaaGmL9mgUhSH-RIM-67">
          <mxGeometry relative="1" as="geometry" />
        </mxCell>
        <mxCell id="kwXfaaGmL9mgUhSH-RIM-64" value="&lt;p class=&quot;MsoNormal&quot;&gt;&lt;span style=&quot;font-size: 11.0pt ; line-height: 107% ; font-family: &amp;#34;calibri&amp;#34; , sans-serif&quot;&gt;Einflussfaktoren&lt;br&gt;werden besprochen&lt;/span&gt;&lt;br&gt;&lt;/p&gt;" style="rounded=1;whiteSpace=wrap;html=1;arcSize=40;fontColor=#000000;fillColor=#ffffc0;strokeColor=#ff0000;" vertex="1" parent="1">
          <mxGeometry x="-350" y="730" width="145" height="60" as="geometry" />
        </mxCell>
        <mxCell id="kwXfaaGmL9mgUhSH-RIM-72" style="edgeStyle=orthogonalEdgeStyle;rounded=0;orthogonalLoop=1;jettySize=auto;html=1;entryX=0.5;entryY=1;entryDx=0;entryDy=0;" edge="1" parent="1" source="kwXfaaGmL9mgUhSH-RIM-67" target="kwXfaaGmL9mgUhSH-RIM-69">
          <mxGeometry relative="1" as="geometry" />
        </mxCell>
        <mxCell id="kwXfaaGmL9mgUhSH-RIM-67" value="&lt;p class=&quot;MsoNormal&quot;&gt;Schätzung der Anforderung durch Methode „Planning Poker“&lt;/p&gt;" style="rounded=1;whiteSpace=wrap;html=1;arcSize=40;fontColor=#000000;fillColor=#ffffc0;strokeColor=#ff0000;" vertex="1" parent="1">
          <mxGeometry x="-150" y="730" width="145" height="60" as="geometry" />
        </mxCell>
        <mxCell id="kwXfaaGmL9mgUhSH-RIM-74" style="edgeStyle=orthogonalEdgeStyle;rounded=0;orthogonalLoop=1;jettySize=auto;html=1;entryX=1;entryY=0.5;entryDx=0;entryDy=0;" edge="1" parent="1" source="kwXfaaGmL9mgUhSH-RIM-69" target="kwXfaaGmL9mgUhSH-RIM-73">
          <mxGeometry relative="1" as="geometry" />
        </mxCell>
        <mxCell id="kwXfaaGmL9mgUhSH-RIM-76" style="edgeStyle=orthogonalEdgeStyle;rounded=0;orthogonalLoop=1;jettySize=auto;html=1;" edge="1" parent="1" source="kwXfaaGmL9mgUhSH-RIM-69" target="kwXfaaGmL9mgUhSH-RIM-75">
          <mxGeometry relative="1" as="geometry" />
        </mxCell>
        <mxCell id="kwXfaaGmL9mgUhSH-RIM-69" value="" style="rhombus;whiteSpace=wrap;html=1;fillColor=#ffffc0;strokeColor=#ff0000;" vertex="1" parent="1">
          <mxGeometry x="-117.5" y="640" width="80" height="40" as="geometry" />
        </mxCell>
        <mxCell id="kwXfaaGmL9mgUhSH-RIM-84" style="edgeStyle=orthogonalEdgeStyle;rounded=0;orthogonalLoop=1;jettySize=auto;html=1;entryX=0.5;entryY=1;entryDx=0;entryDy=0;" edge="1" parent="1" source="kwXfaaGmL9mgUhSH-RIM-73" target="kwXfaaGmL9mgUhSH-RIM-81">
          <mxGeometry relative="1" as="geometry" />
        </mxCell>
        <mxCell id="kwXfaaGmL9mgUhSH-RIM-73" value="&lt;p class=&quot;MsoNormal&quot;&gt;Aufnahme in Selektierte Produkt Backlog&lt;/p&gt;" style="rounded=1;whiteSpace=wrap;html=1;arcSize=40;fontColor=#000000;fillColor=#ffffc0;strokeColor=#ff0000;" vertex="1" parent="1">
          <mxGeometry x="-350" y="630" width="145" height="60" as="geometry" />
        </mxCell>
        <mxCell id="kwXfaaGmL9mgUhSH-RIM-79" style="edgeStyle=orthogonalEdgeStyle;rounded=0;orthogonalLoop=1;jettySize=auto;html=1;" edge="1" parent="1" source="kwXfaaGmL9mgUhSH-RIM-75" target="kwXfaaGmL9mgUhSH-RIM-77">
          <mxGeometry relative="1" as="geometry" />
        </mxCell>
        <mxCell id="kwXfaaGmL9mgUhSH-RIM-75" value="&lt;p class=&quot;MsoNormal&quot;&gt;&lt;span style=&quot;font-size: 11.0pt ; line-height: 107% ; font-family: &amp;#34;calibri&amp;#34; , sans-serif&quot;&gt;neue&lt;br/&gt;Schätzung&lt;/span&gt;&lt;br&gt;&lt;/p&gt;" style="rounded=1;whiteSpace=wrap;html=1;arcSize=40;fontColor=#000000;fillColor=#ffffc0;strokeColor=#ff0000;" vertex="1" parent="1">
          <mxGeometry x="-150" y="530" width="145" height="60" as="geometry" />
        </mxCell>
        <mxCell id="kwXfaaGmL9mgUhSH-RIM-80" style="edgeStyle=orthogonalEdgeStyle;rounded=0;orthogonalLoop=1;jettySize=auto;html=1;" edge="1" parent="1" source="kwXfaaGmL9mgUhSH-RIM-77" target="kwXfaaGmL9mgUhSH-RIM-78">
          <mxGeometry relative="1" as="geometry" />
        </mxCell>
        <mxCell id="kwXfaaGmL9mgUhSH-RIM-77" value="&lt;p class=&quot;MsoNormal&quot;&gt;&lt;span style=&quot;font-size: 11.0pt ; line-height: 107% ; font-family: &amp;#34;calibri&amp;#34; , sans-serif&quot;&gt;Ziel ggf.&lt;br&gt;anpassen&lt;/span&gt;&lt;br&gt;&lt;/p&gt;" style="rounded=1;whiteSpace=wrap;html=1;arcSize=40;fontColor=#000000;fillColor=#ffffc0;strokeColor=#ff0000;" vertex="1" parent="1">
          <mxGeometry x="-150" y="420" width="145" height="60" as="geometry" />
        </mxCell>
        <mxCell id="kwXfaaGmL9mgUhSH-RIM-83" style="edgeStyle=orthogonalEdgeStyle;rounded=0;orthogonalLoop=1;jettySize=auto;html=1;entryX=1;entryY=0.5;entryDx=0;entryDy=0;" edge="1" parent="1" source="kwXfaaGmL9mgUhSH-RIM-78" target="kwXfaaGmL9mgUhSH-RIM-81">
          <mxGeometry relative="1" as="geometry" />
        </mxCell>
        <mxCell id="kwXfaaGmL9mgUhSH-RIM-78" value="&lt;p class=&quot;MsoNormal&quot;&gt;&lt;span style=&quot;font-size: 11.0pt ; line-height: 107% ; font-family: &amp;#34;calibri&amp;#34; , sans-serif&quot;&gt;Ablage&lt;br/&gt;in Produkt Backlog&lt;/span&gt;&lt;br&gt;&lt;/p&gt;" style="rounded=1;whiteSpace=wrap;html=1;arcSize=40;fontColor=#000000;fillColor=#ffffc0;strokeColor=#ff0000;" vertex="1" parent="1">
          <mxGeometry x="-150" y="310" width="145" height="60" as="geometry" />
        </mxCell>
        <mxCell id="kwXfaaGmL9mgUhSH-RIM-85" style="edgeStyle=orthogonalEdgeStyle;rounded=0;orthogonalLoop=1;jettySize=auto;html=1;entryX=1;entryY=0.5;entryDx=0;entryDy=0;" edge="1" parent="1" source="kwXfaaGmL9mgUhSH-RIM-81" target="kwXfaaGmL9mgUhSH-RIM-52">
          <mxGeometry relative="1" as="geometry">
            <Array as="points">
              <mxPoint x="-390" y="340" />
              <mxPoint x="-390" y="670" />
            </Array>
          </mxGeometry>
        </mxCell>
        <mxCell id="kwXfaaGmL9mgUhSH-RIM-87" style="edgeStyle=orthogonalEdgeStyle;rounded=0;orthogonalLoop=1;jettySize=auto;html=1;" edge="1" parent="1" source="kwXfaaGmL9mgUhSH-RIM-81" target="kwXfaaGmL9mgUhSH-RIM-86">
          <mxGeometry relative="1" as="geometry" />
        </mxCell>
        <mxCell id="kwXfaaGmL9mgUhSH-RIM-81" value="" style="rhombus;whiteSpace=wrap;html=1;fillColor=#ffffc0;strokeColor=#ff0000;" vertex="1" parent="1">
          <mxGeometry x="-317.5" y="320" width="80" height="40" as="geometry" />
        </mxCell>
        <mxCell id="kwXfaaGmL9mgUhSH-RIM-88" style="edgeStyle=orthogonalEdgeStyle;rounded=0;orthogonalLoop=1;jettySize=auto;html=1;entryX=2;entryY=0.542;entryDx=0;entryDy=0;entryPerimeter=0;exitX=0.5;exitY=0;exitDx=0;exitDy=0;" edge="1" parent="1" source="kwXfaaGmL9mgUhSH-RIM-86" target="kwXfaaGmL9mgUhSH-RIM-91">
          <mxGeometry relative="1" as="geometry">
            <mxPoint x="-277.5" y="160" as="targetPoint" />
          </mxGeometry>
        </mxCell>
        <mxCell id="kwXfaaGmL9mgUhSH-RIM-86" value="&lt;p class=&quot;MsoNormal&quot;&gt;„Forecast“ mit allen Beteiligten&lt;/p&gt;" style="rounded=1;whiteSpace=wrap;html=1;arcSize=40;fontColor=#000000;fillColor=#ffffc0;strokeColor=#ff0000;" vertex="1" parent="1">
          <mxGeometry x="-350" y="170" width="145" height="60" as="geometry" />
        </mxCell>
        <mxCell id="kwXfaaGmL9mgUhSH-RIM-98" style="edgeStyle=orthogonalEdgeStyle;rounded=0;orthogonalLoop=1;jettySize=auto;html=1;entryX=1;entryY=0.5;entryDx=0;entryDy=0;" edge="1" parent="1" source="kwXfaaGmL9mgUhSH-RIM-91" target="kwXfaaGmL9mgUhSH-RIM-96">
          <mxGeometry relative="1" as="geometry">
            <Array as="points">
              <mxPoint x="-460" y="135" />
              <mxPoint x="-460" y="135" />
            </Array>
          </mxGeometry>
        </mxCell>
        <mxCell id="kwXfaaGmL9mgUhSH-RIM-99" style="edgeStyle=orthogonalEdgeStyle;rounded=0;orthogonalLoop=1;jettySize=auto;html=1;entryX=1;entryY=0.5;entryDx=0;entryDy=0;" edge="1" parent="1" source="kwXfaaGmL9mgUhSH-RIM-91" target="kwXfaaGmL9mgUhSH-RIM-97">
          <mxGeometry relative="1" as="geometry">
            <Array as="points">
              <mxPoint x="-450" y="225" />
              <mxPoint x="-450" y="225" />
            </Array>
          </mxGeometry>
        </mxCell>
        <mxCell id="kwXfaaGmL9mgUhSH-RIM-100" style="edgeStyle=orthogonalEdgeStyle;rounded=0;orthogonalLoop=1;jettySize=auto;html=1;entryX=1;entryY=0.5;entryDx=0;entryDy=0;" edge="1" parent="1" source="kwXfaaGmL9mgUhSH-RIM-91" target="kwXfaaGmL9mgUhSH-RIM-95">
          <mxGeometry relative="1" as="geometry">
            <Array as="points">
              <mxPoint x="-450" y="50" />
              <mxPoint x="-450" y="50" />
            </Array>
          </mxGeometry>
        </mxCell>
        <mxCell id="kwXfaaGmL9mgUhSH-RIM-91" value="" style="html=1;points=[];perimeter=orthogonalPerimeter;fillColor=#000000;strokeColor=none;" vertex="1" parent="1">
          <mxGeometry x="-430" y="10" width="5" height="240" as="geometry" />
        </mxCell>
        <mxCell id="kwXfaaGmL9mgUhSH-RIM-105" style="edgeStyle=orthogonalEdgeStyle;rounded=0;orthogonalLoop=1;jettySize=auto;html=1;entryX=0.5;entryY=0;entryDx=0;entryDy=0;exitX=-0.04;exitY=0.508;exitDx=0;exitDy=0;exitPerimeter=0;" edge="1" parent="1" source="kwXfaaGmL9mgUhSH-RIM-93" target="kwXfaaGmL9mgUhSH-RIM-104">
          <mxGeometry relative="1" as="geometry" />
        </mxCell>
        <mxCell id="kwXfaaGmL9mgUhSH-RIM-93" value="" style="html=1;points=[];perimeter=orthogonalPerimeter;fillColor=#000000;strokeColor=none;" vertex="1" parent="1">
          <mxGeometry x="-770" y="10" width="5" height="240" as="geometry" />
        </mxCell>
        <mxCell id="kwXfaaGmL9mgUhSH-RIM-101" style="edgeStyle=orthogonalEdgeStyle;rounded=0;orthogonalLoop=1;jettySize=auto;html=1;entryX=2;entryY=0.167;entryDx=0;entryDy=0;entryPerimeter=0;" edge="1" parent="1" source="kwXfaaGmL9mgUhSH-RIM-95" target="kwXfaaGmL9mgUhSH-RIM-93">
          <mxGeometry relative="1" as="geometry" />
        </mxCell>
        <mxCell id="kwXfaaGmL9mgUhSH-RIM-95" value="&lt;p class=&quot;MsoNormal&quot;&gt;&lt;span style=&quot;font-size: 11.0pt ; line-height: 107% ; font-family: &amp;#34;calibri&amp;#34; , sans-serif&quot;&gt;Gemeinsames&lt;br/&gt;Ziel dokumentieren&lt;/span&gt;&lt;br&gt;&lt;/p&gt;" style="rounded=1;whiteSpace=wrap;html=1;arcSize=40;fontColor=#000000;fillColor=#ffffc0;strokeColor=#ff0000;" vertex="1" parent="1">
          <mxGeometry x="-670" y="20" width="145" height="60" as="geometry" />
        </mxCell>
        <mxCell id="kwXfaaGmL9mgUhSH-RIM-102" style="edgeStyle=orthogonalEdgeStyle;rounded=0;orthogonalLoop=1;jettySize=auto;html=1;entryX=2.36;entryY=0.521;entryDx=0;entryDy=0;entryPerimeter=0;" edge="1" parent="1" source="kwXfaaGmL9mgUhSH-RIM-96" target="kwXfaaGmL9mgUhSH-RIM-93">
          <mxGeometry relative="1" as="geometry" />
        </mxCell>
        <mxCell id="kwXfaaGmL9mgUhSH-RIM-96" value="&lt;p class=&quot;MsoNormal&quot;&gt;&lt;span style=&quot;font-size: 11.0pt ; line-height: 107% ; font-family: &amp;#34;calibri&amp;#34; , sans-serif&quot;&gt;Selektiertes&lt;br/&gt;Produkt Backlog dokumentieren&lt;/span&gt;&lt;br&gt;&lt;/p&gt;" style="rounded=1;whiteSpace=wrap;html=1;arcSize=40;fontColor=#000000;fillColor=#ffffc0;strokeColor=#ff0000;" vertex="1" parent="1">
          <mxGeometry x="-670" y="105" width="145" height="60" as="geometry" />
        </mxCell>
        <mxCell id="kwXfaaGmL9mgUhSH-RIM-103" style="edgeStyle=orthogonalEdgeStyle;rounded=0;orthogonalLoop=1;jettySize=auto;html=1;entryX=1.56;entryY=0.897;entryDx=0;entryDy=0;entryPerimeter=0;" edge="1" parent="1" source="kwXfaaGmL9mgUhSH-RIM-97" target="kwXfaaGmL9mgUhSH-RIM-93">
          <mxGeometry relative="1" as="geometry">
            <Array as="points">
              <mxPoint x="-720" y="225" />
              <mxPoint x="-720" y="225" />
            </Array>
          </mxGeometry>
        </mxCell>
        <mxCell id="kwXfaaGmL9mgUhSH-RIM-97" value="&lt;p class=&quot;MsoNormal&quot;&gt;&lt;span style=&quot;font-size: 11.0pt ; line-height: 107% ; font-family: &amp;#34;calibri&amp;#34; , sans-serif&quot;&gt;Schätzungen dokumentieren&lt;/span&gt;&lt;br&gt;&lt;/p&gt;" style="rounded=1;whiteSpace=wrap;html=1;arcSize=40;fontColor=#000000;fillColor=#ffffc0;strokeColor=#ff0000;" vertex="1" parent="1">
          <mxGeometry x="-670" y="195" width="145" height="60" as="geometry" />
        </mxCell>
        <mxCell id="kwXfaaGmL9mgUhSH-RIM-107" style="edgeStyle=orthogonalEdgeStyle;rounded=0;orthogonalLoop=1;jettySize=auto;html=1;entryX=0.5;entryY=0;entryDx=0;entryDy=0;" edge="1" parent="1" source="kwXfaaGmL9mgUhSH-RIM-104" target="kwXfaaGmL9mgUhSH-RIM-106">
          <mxGeometry relative="1" as="geometry" />
        </mxCell>
        <mxCell id="kwXfaaGmL9mgUhSH-RIM-104" value="&lt;p class=&quot;MsoNormal&quot;&gt;&lt;span style=&quot;font-size: 11.0pt ; line-height: 107% ; font-family: &amp;#34;calibri&amp;#34; , sans-serif&quot;&gt;Dokumentation&lt;br/&gt;durch SM im Tool „Confluence“&lt;/span&gt;&lt;br&gt;&lt;/p&gt;" style="rounded=1;whiteSpace=wrap;html=1;arcSize=40;fontColor=#000000;fillColor=#ffffc0;strokeColor=#ff0000;" vertex="1" parent="1">
          <mxGeometry x="-915" y="320" width="145" height="60" as="geometry" />
        </mxCell>
        <mxCell id="kwXfaaGmL9mgUhSH-RIM-106" value="" style="ellipse;html=1;shape=endState;fillColor=#000000;strokeColor=#ff0000;" vertex="1" parent="1">
          <mxGeometry x="-857.5" y="445" width="30" height="30" as="geometry" />
        </mxCell>
        <mxCell id="kwXfaaGmL9mgUhSH-RIM-108" value="Aufnahme" style="text;html=1;strokeColor=none;fillColor=none;align=center;verticalAlign=middle;whiteSpace=wrap;rounded=0;" vertex="1" parent="1">
          <mxGeometry x="-170" y="640" width="40" height="20" as="geometry" />
        </mxCell>
        <mxCell id="kwXfaaGmL9mgUhSH-RIM-111" value="keine Aufnahme" style="text;html=1;strokeColor=none;fillColor=none;align=center;verticalAlign=middle;whiteSpace=wrap;rounded=0;" vertex="1" parent="1">
          <mxGeometry x="-80" y="610" width="70" height="20" as="geometry" />
        </mxCell>
        <mxCell id="kwXfaaGmL9mgUhSH-RIM-112" value="keine weitere Anforderung" style="text;html=1;strokeColor=none;fillColor=none;align=center;verticalAlign=middle;whiteSpace=wrap;rounded=0;" vertex="1" parent="1">
          <mxGeometry x="-260" y="260" width="40" height="20" as="geometry" />
        </mxCell>
        <mxCell id="kwXfaaGmL9mgUhSH-RIM-113" value="weitere Anforderung" style="text;html=1;strokeColor=none;fillColor=none;align=center;verticalAlign=middle;whiteSpace=wrap;rounded=0;" vertex="1" parent="1">
          <mxGeometry x="-370" y="350" width="40" height="20" as="geometry" />
        </mxCell>
        <mxCell id="kwXfaaGmL9mgUhSH-RIM-116" value="Ziel" style="shape=note2;boundedLbl=1;whiteSpace=wrap;html=1;size=25;verticalAlign=top;align=center;" vertex="1" parent="1">
          <mxGeometry x="-670" y="413" width="120" height="60" as="geometry" />
        </mxCell>
        <mxCell id="kwXfaaGmL9mgUhSH-RIM-118" value="" style="html=1;verticalAlign=bottom;endArrow=open;dashed=1;endSize=8;exitX=0;exitY=0.5;exitDx=0;exitDy=0;entryX=0;entryY=0;entryDx=120;entryDy=42.5;entryPerimeter=0;" edge="1" parent="1" source="kwXfaaGmL9mgUhSH-RIM-77" target="kwXfaaGmL9mgUhSH-RIM-116">
          <mxGeometry relative="1" as="geometry">
            <mxPoint x="-420" y="400" as="sourcePoint" />
            <mxPoint x="-500" y="400" as="targetPoint" />
          </mxGeometry>
        </mxCell>
        <mxCell id="kwXfaaGmL9mgUhSH-RIM-120" style="edgeStyle=orthogonalEdgeStyle;rounded=0;orthogonalLoop=1;jettySize=auto;html=1;entryX=0;entryY=0.5;entryDx=0;entryDy=0;" edge="1" parent="1" source="kwXfaaGmL9mgUhSH-RIM-119" target="kwXfaaGmL9mgUhSH-RIM-58">
          <mxGeometry relative="1" as="geometry" />
        </mxCell>
        <mxCell id="kwXfaaGmL9mgUhSH-RIM-119" value="&lt;p class=&quot;MsoNormal&quot;&gt;&lt;font face=&quot;calibri, sans-serif&quot;&gt;&lt;span style=&quot;font-size: 14.6667px&quot;&gt;Ziel nicht fix gesetzt&lt;/span&gt;&lt;/font&gt;&lt;/p&gt;" style="rounded=1;whiteSpace=wrap;html=1;arcSize=40;fontColor=#000000;fillColor=#ffffc0;strokeColor=#ff0000;" vertex="1" parent="1">
          <mxGeometry x="-1130" y="730" width="145" height="60" as="geometry" />
        </mxCell>
        <mxCell id="kwXfaaGmL9mgUhSH-RIM-122" value="" style="html=1;verticalAlign=bottom;endArrow=open;dashed=1;endSize=8;exitX=0.5;exitY=0;exitDx=0;exitDy=0;entryX=0.5;entryY=1;entryDx=0;entryDy=0;entryPerimeter=0;" edge="1" parent="1" source="kwXfaaGmL9mgUhSH-RIM-119" target="kwXfaaGmL9mgUhSH-RIM-116">
          <mxGeometry relative="1" as="geometry">
            <mxPoint x="-140" y="460" as="sourcePoint" />
            <mxPoint x="-540" y="465.5" as="targetPoint" />
          </mxGeometry>
        </mxCell>
        <mxCell id="kwXfaaGmL9mgUhSH-RIM-124" value="" style="html=1;verticalAlign=bottom;endArrow=open;dashed=1;endSize=8;exitX=1;exitY=0.5;exitDx=0;exitDy=0;entryX=0;entryY=0;entryDx=47.5;entryDy=0;entryPerimeter=0;" edge="1" parent="1" source="kwXfaaGmL9mgUhSH-RIM-45" target="kwXfaaGmL9mgUhSH-RIM-116">
          <mxGeometry relative="1" as="geometry">
            <mxPoint x="-1047.5" y="740" as="sourcePoint" />
            <mxPoint x="-600" y="483" as="targetPoint" />
          </mxGeometry>
        </mxCell>
        <mxCell id="kwXfaaGmL9mgUhSH-RIM-125" value="lwitsc2s" style="text;html=1;strokeColor=none;fillColor=none;align=center;verticalAlign=middle;whiteSpace=wrap;rounded=0;fontSize=19;" vertex="1" parent="1">
          <mxGeometry x="-1140" y="10" width="40" height="20" as="geometry" />
        </mxCell>
      </root>
    </mxGraphModel>
  </diagram>
</mxfile>
